<?xml version="1.0" encoding="UTF-8" standalone="no"?>
<svg
   width="1500"
   height="1500"
   version="1.1"
   id="svg5"
   xmlns:inkscape="http://www.inkscape.org/namespaces/inkscape"
   xmlns:sodipodi="http://sodipodi.sourceforge.net/DTD/sodipodi-0.dtd"
   xmlns="http://www.w3.org/2000/svg"
   xmlns:svg="http://www.w3.org/2000/svg">
  <sodipodi:namedview
     id="namedview5"
     pagecolor="#ffffff"
     bordercolor="#000000"
     borderopacity="0.25"
     inkscape:showpageshadow="2"
     inkscape:pageopacity="0.0"
     inkscape:pagecheckerboard="0"
     inkscape:deskcolor="#d1d1d1" />
  <defs
     id="defs1" />
  <style
     id="style1" />
  <rect
     width="100%"
     height="100%"
     fill="#fff"
     id="rect1" />
  <g
     transform="translate(385.7142857142857, 321.42857142857144) scale(2.142857142857143)"
     id="g5">
    <g
       transform="translate(0, 0) scale(1 1) rotate(0)"
       fill="url(#stgra_2113)"
       id="g4">
      <svg
         width="340.0"
         height="400.0"
         viewBox="0 0 340 400"
         version="1.1"
         id="svg3">
        <defs
           id="defs3">
          <linearGradient
             id="stgra_2113"
             x1="0%"
             y1="0%"
             x2="100%"
             y2="100%"
             gradientUnits="userSpaceOnUse">
            <stop
               offset="0%"
               style="stop-color:#00f260"
               id="stop1" />
            <stop
               offset="50%"
               style="stop-color:#0575e6"
               id="stop2" />
            <stop
               offset="100%"
               style="stop-color:#1fa2ff"
               id="stop3" />
          </linearGradient>
        </defs>
        <g
           stroke="none"
           id="g3">
          <path
             d="M 184.38422307010535,0.14839519186300265 C 183.89190522223322,0.2826636958281554 182.9520256944774,0.9092500476653882 182.28068317465178,1.535836399502621 C 181.20653514293076,2.5652282632352623 180.8037296310354,2.6547405992119835 178.9239705755237,2.4309597592701095 C 174.98542779254672,1.8938857434096477 154.7556398618015,2.8785214391538503 147.90794615958023,3.9079133028864916 C 133.85450941123068,6.011453198340057 117.87655743938103,10.397557661200779 106.06092909045017,15.410248475898676 C 77.9540555937511,27.36014532879466 54.54657973583128,45.39688102810952 35.56996450876054,69.69948024579683 C 17.443716473468918,92.92793143176313 5.628088124538088,120.9452925924855 1.600033005584386,150.26058262487072 C 1.3314959976541445,152.09558551239405 0.8839343177704038,155.1390049356035 0.5706411418517874,156.9740078231269 C -0.19021371395058395,161.8076739658713 -0.19021371395058395,186.3340540235004 0.5706411418517874,192.55516137388452 C 2.002838517479759,204.19176505086182 4.464427756840358,216.18641807174617 7.463091012061447,226.12228736516528 C 11.893951642910515,240.89182280132883 20.666160568631888,258.21245981282976 30.87056686998124,272.4449212331328 C 50.294743776935725,299.4776466981109 75.22392934646024,319.12560444500724 107.67215113803167,333.0000165214033 C 118.41363145524153,337.5651456562175 134.4810957630679,341.99600628706656 149.6981928791152,344.45759552642716 C 159.54454983655756,346.113573741997 162.85650626769728,346.3373545819389 172.30005771324426,346.20308607797375 L 181.6988529908029,346.0688175740086 L 181.83312149476805,344.2785708544737 C 182.2359270066634,339.6239293836827 179.0582390794888,331.70208764974046 170.06224931382556,314.7394999821466 C 155.74027555754574,287.79628685314515 151.08563408675482,280.76956847897037 143.9246472086149,275.08553514444685 C 134.74963277099818,267.83503593033026 125.4403498294163,265.10490968303935 107.4036141301014,264.3888109952254 C 94.73761858939147,263.8964931473533 89.85919627865866,262.9566136195974 83.41430808833277,259.91319419638796 C 73.29941412296014,255.16904038962025 70.16648236377395,247.47097949561987 73.65746346686714,236.05815665858444 C 76.1638088742161,227.91253408470027 76.3428335461696,227.06216689292114 76.11905270622773,225.00338316545594 C 75.9847842022626,223.75021046178148 75.22392934646024,221.82569523828136 74.10502514675088,219.90118001478123 C 73.12038945100664,218.24520179921137 72.22526609123918,216.09690573576938 72.04624141928565,215.15702620801358 C 71.68819207537865,213.14299864853672 72.67282777112291,210.59189707319933 74.37356215468111,208.75689418567606 L 75.58197869036724,207.54847764998993 L 73.97075664278577,205.84774326643173 C 73.07563328301828,204.9526199066642 71.68819207537865,202.89383617919896 70.97209338756468,201.2826141316175 C 68.06294246832036,195.15101911721018 69.67416451590182,190.13832830251226 75.85051569829747,186.0655170155702 C 78.04356792972783,184.63331963994221 78.53588577759993,183.87246478413982 78.53588577759993,182.12697423259323 C 78.53588577759993,180.82904536093037 77.99881176173946,180.11294667311637 74.597342994623,176.7562340739883 C 68.37623564423896,170.57988289159266 65.19854771706437,165.16438656499935 64.795742205169,159.92791491035956 C 64.34818052528527,154.33339391181278 67.52586845245986,149.99204561694046 74.64209916261137,146.50106451384727 C 79.78905848127442,143.99471910649828 83.19052724839088,142.5177655628819 85.47309181579797,141.75691070707956 C 89.18785375883306,140.54849417139343 97.78103801260093,136.47568288445137 100.77970126782202,134.46165532497452 C 104.53921937884547,131.95530991762553 110.93935140118302,125.37615322333455 112.64008578474125,122.24322146414833 C 114.9674065201367,117.94662933726438 115.37021203203207,115.17174692198516 115.4597243680088,103.93794875690322 C 115.5044805359972,94.22586030342596 115.6387490399623,92.88317526377473 117.0261902476019,87.15438576126284 C 117.7870451034043,84.02145400207662 120.74095219063699,74.84643956445989 121.14375770253238,74.44363405256448 C 121.32278237448585,74.17509704463427 121.50180704643935,73.72753536475052 121.50180704643935,73.3694860208435 C 121.50180704643935,72.25058182113413 127.14108421297453,61.10629599202893 129.55791728434673,57.391534048993876 C 137.47975901828903,45.35212486012112 148.40026400745236,34.610644542911274 160.30540469235996,27.2258768248295 C 165.22858317108114,24.18245740162007 170.86786033761632,21.36281881835251 172.03152070531402,21.36281881835251 C 172.9266440650815,21.36281881835251 173.01615640105825,21.586599658294375 172.88188789709315,23.242577873864192 C 172.74761939312802,25.122336929375933 172.70286322513962,25.16709309736433 169.16712595405806,27.091608320864395 C 154.21856584594101,35.28198706273689 140.1203729296031,48.57456895528411 131.92999418773059,62.225200191738296 C 126.5144978611373,71.17643378941317 123.91864011781158,77.44229730778558 121.27802620649749,87.87048444907678 C 119.71156032690436,94.04683563147249 118.8164369671369,101.0287978376589 119.57729182293926,101.0287978376589 C 119.8458288308695,101.0287978376589 120.15912200678812,99.86513746996114 120.24863434276489,98.43294009433315 C 120.56192751868349,95.07622749520506 122.48644274218361,91.09292854423977 124.81376347757907,89.1236571527513 C 129.6474296203235,85.00608969782083 140.6574469454636,85.09560203379762 149.51916820716173,89.34743799269317 C 159.9921115164413,94.36012880739106 166.97407372262774,101.163066341624 171.80773986537213,111.09893563504313 C 174.179816768756,115.93260177778755 175.25396480047698,119.60260755283427 176.7756745120817,128.55384115050913 C 178.29738422368644,137.41556241220724 178.56592123161667,142.87581490678895 177.89457871179107,150.93192514469632 C 177.22323619196544,159.21181622254556 175.83579498432584,165.96999758879014 173.01615640105825,174.87647501847664 C 166.75029288268584,194.70345743732645 164.69150915522061,203.29664169109435 162.90126243568565,217.3948346074323 C 162.1404075798833,223.34740494988608 162.00613907591816,240.17572411351483 162.67748159574379,246.26256295993375 C 164.82577765918575,265.3286905229812 169.74895613790696,282.42554669454023 178.11835955173294,299.5224028660993 C 188.7255713649777,321.22914434046083 202.24193409746673,335.3273372567988 221.48708633246773,344.7708887023458 C 224.21721257975852,346.113573741997 226.58928948314244,347.3667464456715 226.8130703230843,347.59052728561335 C 227.21587583497964,347.9933327975087 223.0983083800492,352.7822427722648 220.18915746080486,355.199075843637 C 211.86451021496723,362.1810380498234 195.57326506719895,368.4469015681958 177.22323619196544,371.80361416732393 C 174.76164695260485,372.25117584720766 172.21054537726755,372.7434936950798 171.53920285744192,372.92251836703326 C 169.74895613790696,373.370080046917 169.97273697784883,372.5197128551379 171.80773986537213,371.89312650330066 C 174.2245729367444,370.9980031435332 180.7142172950587,365.85104382487015 182.9520256944774,362.9866490736141 C 187.1143493173962,357.79493358696277 188.8598398689428,353.408829124102 189.3521577168149,346.96394093377614 C 189.93398790066377,339.4896608797176 188.18849734911717,333.5370905372638 180.35616795115166,316.0821850217978 C 177.4917731998957,309.68205299946027 174.76164695260485,303.63997032102975 174.31408527272112,302.6553346252855 C 173.86652359283738,301.67069892954123 172.1210330412908,297.3293506346689 170.3755424897442,293.032758507785 C 161.11101571615066,269.9385758257838 157.88857162098773,253.24452516612013 158.33613330087147,230.01607398015392 C 158.51515797282497,218.78227581507184 159.09698815667383,213.5458041604321 161.37955272408092,201.2826141316175 C 162.1404075798833,196.98602200473357 165.18382700309274,184.94661281586087 165.81041335492998,183.60392777620962 C 166.43699970676724,182.26124273655842 170.68883566566276,168.20780598820886 171.67347136140702,164.13499470126675 C 173.6427427528955,156.30266530330124 175.11969629651188,141.30934902719582 173.91127976082575,141.30934902719582 C 173.59798658490712,141.30934902719582 171.80773986537213,141.98069154702148 169.92798080986046,142.83105873880055 C 166.3474873707905,144.39752461839367 162.72223776373215,145.69545349005648 155.51649471760388,147.9332618894752 C 144.73025823240567,151.33473065659166 133.4517038993353,150.66338813676606 124.18717712574181,146.00874666597514 C 119.53253565495089,143.68142593057968 115.01216268812507,140.32471333145156 114.07228316036921,138.53446661191663 C 112.86386662468311,136.2519020445095 113.35618447255521,135.04348550882344 116.31009155978794,133.02945794934658 C 117.7870451034043,132.04482225360232 119.35351098299739,130.61262487797433 119.80107266288115,129.8965261901604 C 120.96473303057886,127.97201096666025 121.94936872632309,124.25724902362519 121.94936872632309,121.7956597842646 C 121.94936872632309,118.84175269703188 120.51717135069512,109.53246975545004 120.06960967081136,109.53246975545004 C 119.89058499885789,109.53246975545004 119.71156032690436,110.7856424591245 119.71156032690436,112.3073521707292 C 119.71156032690436,115.30601542595032 118.36887528725313,120.76626792053194 116.8919217436368,123.63066267178796 C 114.69886951220644,128.0167671346486 112.68484195272958,130.209819366079 102.97275349925238,139.0715406277771 C 93.93200756560074,147.306675537638 92.36554168600765,148.42557973734733 83.45906425632111,152.67741569624292 C 76.38758971415797,156.03412829537098 75.2686855144486,157.01876399111524 75.2686855144486,159.83840257438283 C 75.2686855144486,162.65804115765036 76.96941989800683,165.29865506896454 82.42967239258854,170.89317606751132 C 85.0702863039026,173.6680584827905 87.39760703929807,176.4876970660581 87.93468105515856,177.6066012657675 C 89.85919627865866,181.85843722466302 88.65077974297256,188.03478840705867 85.29406714384447,191.16772016624486 C 84.53321228804214,191.9285750220472 83.90662593620488,192.59991754187286 83.90662593620488,192.734186045838 C 83.90662593620488,192.91321071779146 85.20455480786774,194.3901642614078 86.8157768554492,196.0461424769777 C 88.3822427350423,197.70212069254757 91.38090599026341,201.19310179564076 93.43968971772861,203.87847187494322 C 96.70688998087996,208.0855516658504 97.5125010046707,208.84640652165274 100.06360258000802,210.09957922532726 C 101.63006845960112,210.905190249118 103.86787685901984,211.71080127290872 105.0315372267176,211.84506977687386 C 106.37422226636883,212.02409444882738 107.4931264660782,212.51641229669946 108.11971281791543,213.18775481652506 C 109.77569103348526,214.97800153606005 108.79105533774103,216.23117423973457 103.91263302700824,218.4689826391533 C 99.52652856414755,220.5277663666185 95.45371727720547,221.37813355839762 89.27736609480979,221.5571582303511 L 85.9206534956817,221.64667056632788 L 86.05492199964684,223.61594195781635 C 86.18919050361197,225.85375035723507 85.4283356478096,231.8958330356656 84.80174929597234,233.2832742433052 C 81.57930520080942,240.66804196138696 80.95271884897218,247.5157356636082 83.14577108040251,251.94659629445732 C 85.2493109758561,256.1984322533529 88.33748656705396,257.8544104689227 97.02018315679857,259.42087634851583 C 100.69018893184526,260.09221886834143 104.09165769896171,260.3607558762717 108.70154300176429,260.3607558762717 C 120.33814667874162,260.3607558762717 130.27401597216073,262.33002726776016 138.195857706103,266.26857005073714 C 148.75831335135936,271.5050417053769 155.78503172553414,279.20310259937725 164.24394747533688,294.8677613953083 C 183.04153803045412,329.5537915862985 185.81642044573334,336.1777044485779 185.3688587658496,344.9946695422877 C 185.01080942194258,352.33468109238106 183.13105036643088,356.273223875358 177.22323619196544,362.1810380498234 C 174.13506060076762,365.2692136410212 172.21054537726755,366.7461671846376 168.9433451141162,368.5364139041726 C 158.8284511487436,374.086178734731 145.75965009613827,377.17435432592885 132.46706820359108,377.17435432592885 C 127.9019390687769,377.17435432592885 127.23059654895127,377.2638666619056 126.42498552516054,378.0694776856963 C 125.35083749343954,379.1436257174173 125.30608132545117,379.8149682372429 126.1564485172303,380.97862860494064 C 126.73827870107917,381.78423962873137 127.27535271693966,381.82899579671977 131.66145717980035,381.73948346074303 C 141.64208264120782,381.47094645281277 159.90259918046456,379.3674065573592 172.9714002330699,376.9058173179986 C 205.06157268073432,370.863734639568 220.77098764465373,363.7922600974049 229.67746507434023,351.3500453966368 C 230.79636927404962,349.7835795170437 231.87051730577056,348.619919149346 232.0495419777241,348.7541876533111 C 232.27332281766596,348.8884561572762 235.22722990489868,349.73882334905534 238.62869867201513,350.63394670882286 C 244.49175667849218,352.15565642042753 245.2973677022829,352.24516875640427 254.42762597191123,352.51370576433453 L 264.05020208941175,352.7822427722648 L 266.19849815285374,355.915174531451 C 267.36215852055153,357.6159089150092 269.59996691997026,361.6887202019513 271.21118896755166,364.8664081291259 C 276.3133921182264,375.2050829344404 279.0435183655172,385.1857083958478 279.0435183655172,393.46559947369707 C 279.0435183655172,398.47829028839504 279.6253485493661,399.9999999999998 281.4603514368894,399.9999999999998 C 283.38486666038955,399.9999999999998 283.65340366831975,399.10487664023225 283.38486666038955,393.1523062977785 C 283.2505981564244,390.1536430425574 282.847792644529,385.9465632516502 282.4449871326336,383.7535110202199 C 281.05754592499403,376.10020629420785 277.0742469740287,365.6272629849283 272.33009316726105,357.1235910671371 C 269.9580162638772,352.91651127622987 269.7789915919237,351.66333857255546 271.43496980749353,351.66333857255546 C 271.92728765536566,351.66333857255546 273.6280220389239,351.26053306066007 275.14973175052864,350.81297138077633 C 276.6714414621334,350.3206535329042 278.77498135758697,349.694067181067 279.84912938930796,349.42553017313674 C 281.9974254527499,348.8884561572762 282.98206114849415,347.3667464456715 282.1764501247034,345.84503673406675 C 281.50510760487776,344.5918640303923 280.20717873321496,344.3680831904504 278.28266350971484,345.21845038222955 C 274.6574139026565,346.7849162618226 268.34679421629573,348.4408944773925 267.899232536412,347.903820461532 C 267.183133848598,347.0086971017645 264.85581311320254,342.1302747910317 262.4837362098187,336.4462414565081 C 254.6961629798415,317.8724317413328 252.59262308438795,307.08619525613454 253.9800642920275,292.49568449192446 C 256.1283603554695,270.02808816176054 270.4503341117493,252.30464563836432 296.229886873053,240.22048028150323 C 298.7809884483903,239.0120637458171 306.1657561664721,235.70010731467738 312.65540052478633,232.83571256342145 C 327.11164278503134,226.43558054108394 330.69213622410126,224.42155298160708 334.80970367903166,220.34874169466497 C 339.10629580591564,216.05214956778104 340.0461753336715,213.59056032842045 339.82239449372963,207.27994064205967 C 339.68812598976444,203.29664169109435 339.509101317811,202.49103066730362 338.2111724461481,199.80566058800116 C 337.36080525436904,198.1496823724313 335.52580236684565,195.2852876211753 334.09360499121766,193.49504090164032 C 328.72286483261274,186.7368595353958 328.76762100060114,185.0361251518376 334.2726296631712,180.20245900909316 C 335.3915338628806,179.2178233133489 336.4656818946016,177.91989444168604 336.59995039856665,177.38282042582557 C 337.0475120784504,175.54781753830224 335.7048270387992,173.26525297089512 333.3327501354153,171.92256793124392 C 332.1690897677176,171.25122541141826 331.0949417359966,170.62463905958106 331.00542940001986,170.53512672360426 C 330.87116089605473,170.4456143876276 331.4082349119152,169.7295156998136 332.1690897677176,168.9239046760228 C 334.3621419991479,166.68609627660408 335.61531470282245,163.82170152534815 335.7943393747759,160.7782821021387 C 336.0181202147178,157.06352015910358 334.80970367903166,154.91522409566164 330.7368923920896,151.91656084044052 C 326.1270070892871,148.47033590533573 326.2165194252638,147.48570020959147 331.9453089277757,140.45898183541675 C 338.70349029402024,132.2238469255558 339.4195889818343,126.40554508706713 334.4516543351247,120.9452925924855 C 332.6166514476013,118.93126503300864 331.00542940001986,117.90187316927602 324.1129795298102,114.36613589819443 C 301.15306535177416,102.595263717252 294.8872018334018,94.62866581532133 290.85914671444806,72.16106948515743 C 289.2031684988782,62.89654271156391 288.5318259790526,60.121660296284674 286.6073107555525,55.15372564957515 C 281.2813267649359,41.324069741167435 270.8531396236447,28.926611208387754 256.66543437133,19.483059762840753 C 244.80504985441078,11.605974196886855 226.7235579871075,4.713524326677209 210.56658134330436,1.8938857434096477 C 208.2392606079089,1.491080231514239 205.59864669659478,0.9540062156537772 204.7482795048157,0.7302253757119033 C 203.04754512125746,0.23790752783977354 185.81642044573334,-0.2544103200323562 184.38422307010535,0.14839519186300265 M 194.23058002754772,7.08560123006103 C 201.57059157764112,8.517798605689038 211.55121703904862,11.829755036828729 219.6968396129328,15.499760811875447 C 230.88588161002636,20.601963962550116 246.14773489406198,32.28332380751584 254.24860129995776,41.99541226099305 C 259.84312229850457,48.70883745924921 268.83911206416786,63.567885231389525 268.07825720836547,64.77630176707565 C 267.94398870440034,65.00008260701752 267.183133848598,64.77630176707565 266.3775228248073,64.3287400871919 C 263.42361573757455,62.583249535645265 259.6193414585627,62.001419351796415 252.90591626030655,62.225200191738296 C 245.25261153429452,62.44898103168016 241.3140687513176,63.38886055943604 234.95869289696842,66.52179231862225 C 225.87319079532844,70.95265294947129 219.24927793304906,78.02412749163443 216.02683383788607,86.61731174540232 C 215.13171047811855,89.07890098476291 214.90792963817668,90.46634219240254 214.8631734701883,94.31537263940275 C 214.81841730219995,100.1336744778914 215.62402832599068,102.14770203736826 219.51781494097926,105.99673248436842 C 220.9947684845956,107.42892985999642 222.20318502028172,108.72685873165925 222.20318502028172,108.86112723562441 C 222.20318502028172,109.17442041154301 220.18915746080486,108.72685873165925 217.36951887753727,107.69746686792668 C 216.0715900058744,107.24990518804292 214.63939263024642,106.84709967614758 214.1470747823743,106.84709967614758 C 213.34146375858361,106.84709967614758 211.46170470307183,108.77161489964764 211.46170470307183,109.57722592343835 C 211.46170470307183,110.24856844326398 214.59463646225808,113.47101253842696 216.83244486167675,115.12699075399682 C 221.62135483643286,118.66272802507838 228.42429237066577,121.43761044035757 236.79369578449175,123.27261332788093 C 241.8958989351664,124.43627369557866 256.7101905393184,124.3915175275903 262.0361745299349,123.27261332788093 C 272.1063123273192,121.12431726443897 282.8925488125174,116.02211411376432 284.68279553205235,112.57588917865947 C 285.354138051878,111.27796030699663 285.354138051878,111.14369180303147 284.5485270280873,110.06954377131048 C 283.96669684423836,109.26393274751977 282.5792556365988,108.54783405970578 280.02815406126143,107.74222303591505 C 275.9553427743194,106.44429416425216 274.38887689472625,105.28063379655445 273.1804603590402,102.595263717252 C 272.01679999134245,100.1336744778914 272.1510684953075,98.07489075042618 273.67277820691226,91.85378340004216 C 275.6420495984008,84.11096633805336 275.9553427743194,76.27863694008784 274.6126577346681,70.59460360556432 C 272.01679999134245,59.98739179231957 265.6166679690049,48.350788115342226 256.30738502742304,37.475039294167274 C 245.073586862341,24.271969737596834 226.7683141550959,12.232560548724088 210.47706900732763,7.21986973402619 C 207.70218659204843,6.3695025422470835 206.94133173624604,5.563891518456316 209.3581648076183,5.966697030351675 C 210.11901966342063,6.100965534316828 214.01280627840922,6.996088894084316 217.99610522937454,7.980724589828519 C 233.21320234542182,11.650730364875244 245.83444171814338,17.245251363422035 257.6053138990859,25.659410945236402 C 261.9914183619466,28.79234270442261 271.7482629834122,38.325406485946374 274.5679015666797,42.26394926892331 C 281.773644612808,52.28933089831915 284.5037708600989,59.89787945634281 287.5919464512967,78.38217683554144 C 289.2479246668666,88.13902145700705 294.5291524894947,98.29867159036804 301.42160235970437,104.96734062063582 C 306.6133178463558,110.02478760332211 310.28332362140253,112.44162067469436 321.5171217864845,118.03614167324115 C 331.22921023996173,122.95932015196233 333.1984816314502,124.74956687149732 333.1984816314502,128.7328658224626 C 333.1984816314502,130.61262487797433 332.43762677564786,132.8056771094047 331.76628425582226,132.8056771094047 C 331.58725958386873,132.8056771094047 331.4082349119152,132.00006608561392 331.4082349119152,131.01543038986972 C 331.4082349119152,128.7328658224626 329.25993884847327,126.22652041511365 326.88786194508947,125.68944639925313 C 324.56054120969395,125.15237238339269 320.89053543464723,125.86847107120668 317.7128475074727,127.43493695079978 C 308.2692960619257,132.08957842159072 299.31806246425083,147.48570020959147 303.92794776705335,151.1109498166498 C 304.59929028687895,151.64802383251032 305.6286821506116,152.0508293444057 306.2105123344605,152.0508293444057 C 307.7322220460652,152.0508293444057 310.59661679732113,150.4843634648126 312.7449128607631,148.51509207332413 C 314.75894042024,146.6353330178124 317.8918721794262,144.44228078638207 318.47370236327504,144.44228078638207 C 318.6527270352285,144.44228078638207 318.3394338593099,145.516428818103 317.75760367546104,146.76960152177747 C 316.5044309717866,149.45497160107993 316.4149186358098,151.06619364866145 317.26528582758897,153.52778288802205 C 318.07089685137964,155.7655912874407 318.92126404315877,156.66071464720824 321.47236561849616,157.91388735088276 C 324.8290782176242,159.61462173444096 326.0374947533103,160.55450126219682 326.0374947533103,161.4943807899527 C 326.0374947533103,162.83706582960394 325.1423713935428,162.88182199759228 322.7255383221706,161.67340546190616 C 317.7128475074727,159.12230388656883 312.7896690287515,160.64401359817356 307.46368503813494,166.32804693269708 C 300.83977217585556,173.489033810837 294.39488398552965,179.66538499323264 291.88853857818066,181.3213632088025 C 289.42694933882007,182.93258525638402 289.29268083485493,183.1116099283375 289.42694933882007,184.63331963994221 C 289.60597401077354,186.69210336740747 291.03817138640153,187.72149523114007 296.05086220109945,189.37747344670993 C 303.6594107591231,191.88381885405886 315.1617459321353,192.55516137388452 320.8010230986705,190.80967082233786 C 322.412245146252,190.3173529744658 322.9940753301008,190.3173529744658 323.12834383406596,190.67540231837273 C 323.2178561700427,190.9886954942914 323.48639317797296,192.19711202997752 323.79968635389156,193.45028473365198 C 324.0682233618218,194.6587012693381 325.3661522334847,197.88114536450104 326.6193249371592,200.6112716117919 C 330.3788430481826,208.7121380176876 330.065549872264,212.91921780859485 325.32139606549634,217.61861544737417 C 317.0862611556354,225.71948185326988 295.155738841332,230.7769288359562 263.1550787296443,231.98534537164232 C 251.2499380447367,232.38815088353772 237.1069889604104,230.59790416400273 227.3949005069331,227.42021623682814 C 214.46036795829295,223.21313644592095 202.8237642813156,213.45629182445538 196.96070627483854,201.9539566514431 C 194.9466787153617,198.01541386846617 193.20118816381512,192.91321071779146 192.8431388199081,189.9145474625704 C 192.66411414795462,188.66137475889593 192.35082097203602,187.36344588723307 192.08228396410576,187.05015271131447 C 191.45569761226852,186.24454168752368 189.75496322871027,186.37881019148887 188.8598398689428,187.40820205522147 C 187.8304480052102,188.5271062549308 188.09898501314046,191.12296399825652 189.75496322871027,196.0461424769777 C 192.30606480404762,203.92322804293156 196.91595010685015,211.35275192900173 202.95803278528072,217.43959077542064 C 216.74293252570007,231.31400285181667 235.3614984088638,236.86376768237517 265.392887129063,236.01340049059598 C 276.626685294145,235.70010731467738 285.6226750598082,234.89449629088665 293.1864674498435,233.50705508324705 C 295.871837529146,232.96998106738658 299.09428162430896,232.38815088353772 300.30269815999503,232.16437004359585 C 301.55587086366955,231.94058920365399 302.9880682392975,231.62729602773533 303.56989842314636,231.44827135578186 C 304.1069724390068,231.31400285181667 304.55453411889056,231.35875901980512 304.55453411889056,231.582539859747 C 304.55453411889056,231.76156453170046 303.30136141521615,232.43290705152606 301.7796517036114,233.01473723537492 C 296.1851307050646,235.20778946680525 284.5037708600989,241.29462831322422 278.9092498615521,244.96463408827088 C 269.73423542393533,251.05147293468985 261.3648320101093,260.04746270035304 256.4864096993765,268.99869629802794 C 253.44299027616702,274.5932172965747 251.07091337278317,282.3360343585635 249.95200917307383,290.168363756529 C 247.89322544560864,304.26655667286695 249.8177406691087,316.39547819771644 257.11299605121377,335.3273372567988 C 257.9186070750045,337.4756333202407 256.79970287529517,336.0881921126012 252.59262308438795,329.6880600902636 C 249.01212964531797,324.3173199316587 246.46102806998064,319.88645930080963 235.00344906495675,298.85106034627364 C 230.3040514261775,290.25787609250574 221.12903698856073,274.6379734645631 209.80572648750203,256.1089199173761 C 194.0963115235826,230.28461098808407 188.41227818905904,217.17105376749043 185.45837110182632,199.9399290919663 C 184.6527600780356,195.19577528519858 184.5184915740705,193.18174772572172 184.74227241401238,186.96064037533773 C 185.05556558993098,176.8457464099651 186.44300679757058,170.22183354768572 191.76899078818712,153.61729522399878 C 194.36484853151288,145.4716726501146 197.45302412271067,132.35811542952098 198.2586351465014,126.18176424712526 C 200.45168737793173,108.63734639568254 198.12436664253633,96.15037552692606 188.18849734911717,72.16106948515743 C 180.6694611270703,54.0348214498658 178.5211650636283,45.531149532074664 178.07360338374454,32.328079975504224 C 177.80506637581433,25.122336929375933 177.89457871179107,23.734895721736322 178.74494590357017,19.39354742686399 C 179.8190939352912,14.157075772224218 181.25129131091913,10.08426448528214 183.0862941984425,7.354138237991293 L 184.20519839815185,5.608647686444698 L 186.9800808134311,5.921940862363343 C 188.5017905250358,6.100965534316828 191.76899078818712,6.593283382188957 194.23058002754772,7.08560123006103 M 173.6427427528955,35.55052407066715 C 174.04554826479085,40.29467787743485 175.52250180840724,49.06688680315624 176.5966498401282,53.00542958613316 C 177.89457871179107,57.97336423284273 180.1323871112098,64.01544691127326 184.60800391004722,75.07022040440175 C 189.62069472474516,87.33341043321632 192.35082097203602,95.38952067112372 193.38021283576862,101.0287978376589 C 194.54387320346635,107.07088051608945 194.54387320346635,122.6012708080553 193.42496900375698,129.44896451027665 C 192.39557714002436,135.5358033566955 190.06825640462893,144.8898424662658 187.7856918372218,152.1850978483708 C 181.92263383074476,170.66939522756945 180.8037296310354,176.57720940203484 180.8037296310354,189.6460104546402 C 180.8037296310354,198.55248788432664 180.93799813500056,200.2532222678849 181.83312149476805,204.41554589080368 C 186.12971362165194,223.61594195781635 190.56057425250106,233.01473723537492 211.90926638295556,267.96930443429534 C 220.6367191406886,282.29127819057516 226.99209499503777,293.3012955157152 234.28735037714276,306.6833897442392 C 244.71553751843405,325.92854197924015 249.54920366117844,333.85038371318245 256.62067820334164,343.2939351587294 C 258.50043725885337,345.80028056607836 259.7088537945395,347.8590642935436 259.529829122586,348.1276013014739 C 259.30604828264416,348.5304068133692 257.69482623506264,348.5751629813576 253.80103962007402,348.35138214141574 C 247.62468843767837,348.0380889654971 242.25394827907346,347.187721773718 237.1517451283988,345.7107682301017 C 233.12369000944508,344.5918640303923 233.30271468139856,344.9051572063109 234.46637504909634,339.6686855516711 C 235.76430392075915,333.76087137720566 235.09296140093355,325.3914679633796 232.67612832956135,317.8724317413328 C 231.10966244996823,312.9044970946232 226.00745929929352,302.7000907932739 222.29269735625846,297.0160574587503 C 218.533179245235,291.24251178825 210.83511835123463,280.8143246469588 207.65743042406004,277.1443188719121 C 204.52449866487385,273.4743130968654 195.8418020751292,262.8671012836206 191.76899078818712,257.67538579696924 C 181.6540968228145,244.7856094163174 174.62737844863975,231.35875901980512 171.67347136140702,219.27459366294403 C 168.89858894612783,207.86177082590854 169.39090679399993,201.14834562765242 174.13506060076762,184.81234431189574 C 180.9827543029889,161.4496246219643 181.47507215086102,158.76425454266183 181.78836532677965,145.87447816201 C 182.14641467068662,131.91055374963724 181.43031598287263,127.07688760689275 176.37286900018634,109.7562505953919 C 173.23993724100015,99.14903878214714 170.77834800163956,89.03414481677454 169.6146876339418,82.23120728254166 C 168.63005193819757,76.27863694008784 168.2272464263022,61.151052160017315 168.89858894612783,52.96067341814478 C 169.70419996991856,43.24858496466756 171.85249603336052,32.10429913556236 172.9714002330699,32.10429913556236 C 173.15042490502336,32.10429913556236 173.46371808094202,33.67076501515545 173.6427427528955,35.55052407066715 M 261.72288135401635,67.14837867045946 C 267.22789001658634,68.89386922200606 267.31740235256314,70.68411594154104 261.81239368999303,69.47569940585495 C 257.2025083871905,68.44630754212231 248.4750556294575,68.75960071804096 243.77565799067818,70.10228575769219 C 237.0174766244336,72.07155714918065 229.72222124232863,76.5024177800297 224.97806743556092,81.51510859472765 C 221.17379315654912,85.49840754569296 221.17379315654912,84.5137718499487 224.93331126757252,79.8143742111694 C 230.16978292221236,73.27997368486677 238.36016166408487,68.40155137413393 246.81907741388758,66.7903293265525 C 250.8918887008297,66.02947447075012 258.67946193080684,66.2084991427036 261.72288135401635,67.14837867045946 M 261.1858073381558,73.77229153273886 C 265.57191180101654,74.62265872451802 267.7202078644585,74.71217106049473 269.9580162638772,73.9513162046924 C 270.8531396236447,73.63802302877376 270.89789579163306,73.81704770072724 271.21118896755166,77.44229730778558 C 271.5244821434703,81.3808400907625 270.94265195962146,86.48304324143722 269.7789915919237,89.25792565671641 L 269.1971614080748,90.645366864356 L 266.8698406726794,89.75024350458854 C 263.8264212494699,88.54182696890241 257.9186070750045,88.45231463292568 254.51713830788802,89.52646266464667 C 249.1463981492831,91.18244088021653 245.47639237423638,93.64403011957712 237.778331480236,100.67074849375187 C 233.88454486524742,104.25124193282183 229.36417189842157,107.29466135603131 227.97673069078203,107.29466135603131 C 226.58928948314244,107.29466135603131 220.6367191406886,101.0287978376589 219.74159578092113,98.70147710226341 L 218.9807409251188,96.59793720680979 L 220.9947684845956,93.3307369436585 C 225.64940995538657,85.94596922557672 230.6173446020961,81.1123030828323 237.33076980035227,77.44229730778558 C 245.25261153429452,73.05619284492491 252.3240860764577,71.98204481320388 261.1858073381558,73.77229153273886 M 265.9747173129119,94.09159179946086 L 268.30203804830734,95.16573983118185 L 268.30203804830734,98.65672093427501 C 268.34679421629573,101.879165029438 268.5705750562376,102.81904455719386 270.1370409358307,106.71283117218242 C 270.6741149516912,108.10027237982202 270.6741149516912,108.23454088378712 269.4209422480167,109.53246975545004 C 266.467035160784,112.62064534664786 261.0962950021791,114.32137973020606 252.86116009231816,114.72418524210143 C 245.16309919831778,115.12699075399682 238.136380824143,113.82906188233393 233.88454486524742,111.18844797101984 C 232.49710365760782,110.33808077924074 232.4075913216311,110.20381227527564 233.12369000944508,109.80100676338024 C 236.12235326466615,108.01076004384525 238.1811369921314,106.39953799626382 242.11967977510832,102.7742883892055 C 249.99676534106217,95.52378917508882 254.6961629798415,93.01744376773983 260.46970865034183,92.9726875997515 C 262.8865417217141,92.9726875997515 264.13971442538855,93.2412246076817 265.9747173129119,94.09159179946086 M 276.80570996609845,111.322716474985 C 277.7903456618427,111.81503432285707 278.59595668563344,112.3521083387176 278.59595668563344,112.44162067469436 C 278.59595668563344,112.93393852256644 272.2853369992727,115.79833327382245 268.7495997281911,116.91723747353181 C 262.1256868659117,118.97602120099698 257.5605577310975,119.82638839277614 251.29469421272503,120.13968156869471 C 245.87919788613178,120.36346240863661 244.62602518245725,120.27395007265987 239.25528502385234,119.19980204093885 C 235.988084760701,118.52845952111325 232.13905431370083,117.63333616134575 230.75161310606123,117.18577448146202 C 227.66343751486338,116.20113878571779 222.65074670016546,113.9185742183107 222.65074670016546,113.42625637043857 C 222.65074670016546,113.2472316984851 223.94867557182832,113.11296319451999 225.51514145142144,113.11296319451999 C 227.7977060188285,113.11296319451999 228.8718540505495,113.3815002024502 230.84112544203796,114.41089206618283 C 237.68881914425927,118.03614167324115 242.97004696688745,119.11028970496214 251.96603673255063,118.79699652904348 C 262.39422387384195,118.43894718513651 268.9286244001446,116.38016345767129 273.04619185507505,112.1730836667641 C 273.9860713828309,111.23320413900824 274.83643857461,110.4275931152175 274.8811947425984,110.4275931152175 C 274.9707070785752,110.4275931152175 275.86583043834264,110.83039862711287 276.80570996609845,111.322716474985 M 326.7535934411243,130.34408787004412 C 327.38017979296154,131.32872356578832 327.4249359609499,131.77628524567206 326.97737428106615,133.29799495727679 C 326.2165194252638,135.84909653261417 324.0234671938334,137.81836792410263 320.89053543464723,138.80300361984683 C 316.9519926516703,140.01142015553302 314.5351595802981,141.39886136317256 311.04417847720487,144.39752461839367 C 309.34344409364667,145.9192343299984 307.77697821405354,147.12765086568453 307.5979535421001,147.12765086568453 C 306.47904934239074,147.12765086568453 308.0455152219838,143.32337658667268 310.64137296530953,139.69812697961436 C 313.8190608924841,135.2225101807769 318.5632146992518,131.37347973377672 322.81505065814736,129.851770022172 C 325.23188372951955,129.00140283039286 325.94798241733355,129.0909151663696 326.7535934411243,130.34408787004412 M 323.7101740179148,151.96131700842892 C 324.0234671938334,152.49839102428945 325.6794454094033,153.97534456790578 327.3354236249732,155.1837611035919 C 331.139697903985,157.9586435188711 332.213845935706,159.83840257438283 331.4529910799036,162.38950414972015 C 331.139697903985,163.32938367747602 330.423599216171,164.67206871712722 329.7970128643338,165.34341123695287 C 328.58859632864767,166.68609627660408 328.5438401606593,166.73085244459247 329.97603753628727,163.01609050155741 C 330.423599216171,161.85243013385968 330.55786772013613,160.7335259341503 330.33408688019426,159.88315874237122 C 329.8865252003105,158.18242435881297 327.4696921289383,155.94461595939424 325.32139606549634,155.27327343956864 C 321.2933409465426,154.06485690388251 319.81638740292624,151.28997448860332 321.6513902904496,148.47033590533573 L 322.6360259861939,146.90387002574266 L 322.9045629941241,148.91789758521946 C 323.0388314980892,150.03680178492885 323.4416370099846,151.37948682458006 323.7101740179148,151.96131700842892 M 321.24858477855423,165.70146058085987 C 322.14370813832176,166.32804693269708 322.9045629941241,167.1336579564878 322.9045629941241,167.49170730039486 C 322.9045629941241,167.80500047631347 321.02480393861237,169.23719785194146 318.78699553919364,170.66939522756945 C 316.5044309717866,172.056836435209 313.8190608924841,173.75757081876725 312.83442519673986,174.42891333859285 C 310.64137296530953,175.95062305019758 304.8230711268208,179.03879864139543 302.9880682392975,179.66538499323264 C 302.27196955148355,179.9339220011629 301.2425776877509,180.3367275130583 300.75025983987877,180.51575218501182 C 299.3628186322392,181.0528262008723 313.8190608924841,166.1042660927552 315.4302829400656,165.29865506896454 C 317.48906666753084,164.31401937322028 319.3240695550541,164.403531709197 321.24858477855423,165.70146058085987 M 329.8865252003105,174.87647501847664 C 331.497747247892,175.50306137031384 331.22921023996173,176.0848915541627 328.76762100060114,177.29330808984884 C 326.1270070892871,178.63599312950004 324.4262727057289,180.56050835300016 323.7549301859032,183.0668537603491 C 322.9940753301008,185.61795533568647 322.6807821541822,185.93124851160513 319.3240695550541,186.78161570338415 C 314.6694280842632,187.94527607108193 300.07891732005316,187.05015271131447 300.07891732005316,185.57319916769808 C 300.07891732005316,185.3494183277562 300.30269815999503,185.17039365580274 300.5712351679253,185.17039365580274 C 301.734895535623,185.17039365580274 308.62734540583267,181.81368105667462 313.6400362205306,178.81501780145356 C 320.57724225872863,174.6974503465231 322.77029449015896,173.89183932273238 326.1717632572754,174.20513249865098 C 327.64871680089175,174.3841571706045 329.30469501646166,174.65269417853477 329.8865252003105,174.87647501847664 M 331.5425034158804,197.34407134864057 C 335.7943393747759,203.56517869902456 336.8237312385085,208.17506400182714 334.9887283509852,213.05348631255998 C 334.4964105031131,214.35141518422284 333.3775063034037,216.09690573576938 332.5271391116246,216.94727292754857 C 330.64738005611287,218.7375196470835 330.60262388812447,218.60325114311843 332.0795774317408,215.6941002238741 C 333.46701863938046,212.91921780859485 333.9593364872526,208.8016503536644 333.2432377994386,205.89249943442007 C 332.92994462352,204.72883906672234 331.72152808783386,201.59590730753615 330.4683553841594,198.95529339622203 C 329.25993884847327,196.3146794849079 328.275303152729,194.07687108548924 328.275303152729,193.94260258152406 C 328.275303152729,193.00272305376825 329.34945118445,194.16638342146592 331.5425034158804,197.34407134864057 M 168.67480810618596,225.00338316545594 C 172.16578920927915,236.23718133053785 178.70018973558183,248.09756584745708 188.05422884515207,260.18173120431817 C 189.97874406865213,262.6880766116672 195.17045955530358,269.132964801993 199.60132018615266,274.503704960598 C 213.1624390866301,291.01873094830813 218.66744774920014,298.71679184230857 223.50111389194458,307.89180627992533 C 228.78234171457277,317.8276755733444 230.6621007700845,324.3620760996471 230.70685693807283,332.37343016956606 C 230.70685693807283,337.5651456562175 229.9460020822705,342.71210497488056 229.09563489049137,343.0253981507992 C 228.29002386670064,343.33869132671776 218.66744774920014,338.460269015985 213.92329394243242,335.3720934247872 C 200.4069312099434,326.510372163089 189.7102070607219,313.88913279036746 181.6988529908029,297.2398382986922 C 177.93933487977944,289.40750890072667 176.14908816024447,285.1109167738427 173.73225508887228,277.59188055179584 C 168.13773409032547,260.3607558762717 166.2579750348137,248.6346398633176 166.2579750348137,230.68741649997952 C 166.2579750348137,223.07886794195588 166.39224353877884,220.03544851874636 166.75029288268584,220.16971702271155 C 167.0188298906161,220.25922935868823 167.9139532503836,222.45228159011856 168.67480810618596,225.00338316545594"
             id="i1"
             class="c1" />
          <path
             d="M 130.7215776520445,90.60061069636764 C 129.55791728434673,90.91390387228627 126.60401019711404,92.79366292779797 126.1564485172303,93.4650054476236 C 125.93266767728844,93.86781095951899 126.1116923492419,93.91256712750733 126.91730337303267,93.68878628756546 C 132.6013367075562,91.89853956803047 137.25597817834714,91.6747587280886 142.35818132902182,92.9726875997515 C 150.9961217507781,95.16573983118185 158.96271965270873,101.163066341624 165.7656571869416,110.51710545119424 C 167.33212306653473,112.71015768262457 168.67480810618596,114.45564823417122 168.7643204421627,114.45564823417122 C 169.21188212204643,114.45564823417122 167.46639157049987,111.00942329906637 165.9446818588951,108.90588340361275 C 159.81308684448783,100.35745531783327 152.60734379835955,94.8524466552632 143.47708552873118,91.6747587280886 C 140.03086059362636,90.5110983603909 138.77768788995186,90.28731752044904 135.46573145881217,90.33207368843738 C 133.3174353953702,90.37682985642577 131.16913933192822,90.5110983603909 130.7215776520445,90.60061069636764"
             id="i2"
             class="c2" />
          <path
             d="M 130.85584615600962,96.59793720680979 C 129.96072279624212,96.77696187876332 128.0809637407304,97.49306056657728 126.6487663651024,98.11964691841457 L 124.09766478976508,99.23855111812391 L 124.27668946171858,104.69880361270556 C 124.45571413367207,110.87515479510127 124.67949497361394,111.5912534829152 126.06693618125357,110.83039862711287 C 126.6487663651024,110.51710545119424 128.66279392457923,110.38283694722914 131.30340783589335,110.51710545119424 C 134.8839012749633,110.6513739551594 136.047561642661,110.87515479510127 138.15110153811463,111.90454665883384 C 143.02952384884745,114.27662356221767 144.73025823240567,116.02211411376432 153.72624799806889,127.65871779074165 C 155.9640563974876,130.5231125419976 157.9333277889761,132.53714010147445 159.63406217253433,133.70080046917218 C 163.03553093965078,135.9386088685909 167.60066007446497,137.37080624421884 171.0468850095698,137.19178157226537 C 173.50847424893038,137.0575130683003 173.6427427528955,137.0127569003119 173.50847424893038,135.9386088685909 C 173.41896191295362,135.31202251675364 172.7923755611164,132.98470178135818 172.03152070531402,130.70213721395106 C 169.1223697860697,121.70614744828784 161.46906506005766,110.11429993929887 154.48710285387128,104.07221726086833 C 151.13039025474322,101.163066341624 144.05891571258005,97.44830439858895 140.2993976015566,96.59793720680979 C 137.92732069817276,96.06086319094932 133.13841072341668,96.06086319094932 130.85584615600962,96.59793720680979"
             id="i3"
             class="c2" />
          <path
             d="M 126.60401019711404,114.72418524210143 C 125.66413066935817,114.9479660820433 125.6193745013698,115.17174692198516 125.70888683734654,120.85578025650874 C 125.75364300533491,125.59993406327642 125.57461833338144,127.25591227884625 124.90327581355581,129.135671334358 L 124.09766478976508,131.5525044057302 L 125.4403498294163,133.38750729325358 C 128.0809637407304,137.14702540427697 132.42231203560272,139.60861464363757 139.85183592167283,141.62264220311442 C 143.70086636867305,142.69679023483548 158.2913771328831,142.65203406684708 161.11101571615066,141.62264220311442 C 162.05089524390655,141.26459285920743 162.90126243568565,140.7722750113353 162.99077477166242,140.59325033938183 C 163.03553093965078,140.36946949943996 161.55857739603442,139.4743461396725 159.63406217253433,138.53446661191663 C 155.38222621363877,136.52043905243977 153.09966164623168,134.37214298899784 148.22123933549886,127.74823012671838 C 140.88122778540546,117.85711700128762 136.89792883444014,114.85845374606656 130.6768214840561,114.63467290612469 C 128.9760871004979,114.58991673813632 127.09632804498614,114.63467290612469 126.60401019711404,114.72418524210143"
             id="i4"
             class="c2" />
          <path
             d="M 119.75631649489276,135.80434036462577 C 119.04021780707876,136.65470755640484 118.86119313512526,137.23653774025377 119.12973014305553,137.6840994201375 C 119.35351098299739,138.0421487640445 121.45705087845099,139.4743461396725 123.87388394982318,140.95129968328882 C 127.99145140475363,143.4576450906378 133.18316689140508,145.516428818103 136.8084164984634,146.05350283396353 C 139.49378657776586,146.50106451384727 138.82244405794026,145.6059411540798 135.95804930668427,144.93459863425414 C 130.3635283081375,143.63666976259128 124.5899826376372,139.83239548357943 122.62071124614872,136.2071458765211 C 121.59131938241612,134.28263065302104 121.18851387052072,134.23787448503265 119.75631649489276,135.80434036462577"
             id="i5"
             class="c2" />
          <path
             d="M 83.41430808833277,147.08289469769613 C 75.17917317847187,150.66338813676606 73.88124430680901,151.42424299256845 71.46441123543678,154.02010073589418 C 67.1230629405645,158.71949837467344 68.77904115613433,164.49304404517375 77.01417606599523,173.08622829894165 C 81.93735454471641,178.1884314496163 83.01150257643738,179.8891658331745 83.01150257643738,182.3507550725351 C 83.01150257643738,185.52844299970968 82.16113538465828,186.69210336740747 76.43234588214636,191.2572325022216 C 74.19453748272764,193.09223538974504 73.29941412296014,195.6433369650823 74.10502514675088,198.0601700364545 C 74.7763676665765,200.2532222678849 78.0883240977162,204.90786373867581 80.19186399316982,206.6533542902224 L 81.89259837672802,208.040795497862 L 80.54991333707679,209.02543119360627 C 79.83381464926282,209.5177490414784 78.53588577759993,210.68140940917613 77.68551858582083,211.53177660095525 C 76.38758971415797,212.87446164060646 76.25332121019287,213.3220233204902 76.43234588214636,214.75422069611818 C 76.56661438611147,215.6941002238741 77.4169815778906,217.70812778335096 78.35686110564646,219.22983749495563 C 80.01283932121629,221.9152075742581 80.10235165719305,222.18374458218835 80.10235165719305,225.85375035723507 C 80.10235165719305,229.16570678837473 79.83381464926282,230.508391828026 78.17783643369296,235.43157030674718 C 76.11905270622773,241.69743382511956 75.76100336232074,245.2331710962012 76.92466373001847,248.05280967946874 C 77.28271307392546,248.90317687124787 77.68551858582083,249.61927555906186 77.7750309217976,249.61927555906186 C 77.86454325777433,249.61927555906186 77.86454325777433,248.09756584745708 77.73027475380923,246.26256295993375 C 77.50649391386733,242.99536269678248 77.9540555937511,240.13096794552644 79.16247212943719,237.08754852231704 C 80.72893800903032,233.1490057393401 81.84784220873965,228.18107109263048 81.84784220873965,225.40618867735128 C 81.84784220873965,222.81033093402556 81.62406136879778,222.09423224621162 80.28137632914655,219.8116676788045 C 77.90929942576273,215.82836872783918 77.50649391386733,214.44092752019958 78.31210493765806,212.87446164060646 C 79.02820362547206,211.57653276894365 81.89259837672802,209.33872436952487 82.87723407247228,209.33872436952487 C 84.04089444017,209.33872436952487 83.36955192034438,208.26457633780387 80.28137632914655,204.99737607465255 C 76.8799075620301,201.41688263558262 75.40295401841374,198.64200022030337 75.40295401841374,195.86711780502418 C 75.40295401841374,194.34540809341945 75.671491026344,193.85309024554732 77.32746924191383,192.33138053394265 C 83.81711360022811,186.3340540235004 84.26467528011187,185.84173617562834 84.57796845603048,184.0962456240817 C 85.20455480786774,180.96331386489555 84.26467528011187,179.2178233133489 79.02820362547206,173.75757081876725 C 73.97075664278577,168.38683066016233 71.64343590739028,164.8063372210924 70.97209338756468,161.22584378202242 C 69.94270152383206,155.72083511945237 72.89660861106478,152.7669280322197 84.44369995206537,147.57521254556826 C 87.35285087130973,146.2772836739054 89.94870861463542,144.93459863425414 90.21724562256566,144.62130545833554 C 90.48578263049592,144.26325611442854 90.66480730244942,143.99471910649828 90.57529496647265,143.99471910649828 C 90.48578263049592,144.03947527448668 87.26333853533293,145.38216031413793 83.41430808833277,147.08289469769613"
             id="i6"
             class="c3" />
          <path
             d="M 79.61003380932095,196.09089864496605 C 78.93869128949532,197.7916330285243 83.59333276028624,203.20712935511756 89.0983414228563,207.23518447407127 C 91.96273617411225,209.29396820153653 92.58932252594951,209.33872436952487 90.75431963842615,207.4142091460248 C 90.03822095061219,206.6533542902224 88.82980441492606,205.17640074660608 88.11370572711206,204.19176505086182 C 86.05492199964684,201.2826141316175 82.16113538465828,196.94126583674517 80.95271884897218,196.13565481295444 C 80.01283932121629,195.55382462910558 79.83381464926282,195.50906846111718 79.61003380932095,196.09089864496605"
             id="i7"
             class="c3" />
          <path
             d="M 85.9654096636701,211.80031360888552 C 85.83114115970497,212.20311912078085 85.02553013591424,212.91921780859485 84.13040677614674,213.41153565646692 C 82.16113538465828,214.5751960241647 81.98211071270478,216.2759304077229 83.72760126425138,216.94727292754857 C 86.59199601550733,218.0661771272579 100.91396977178712,216.90251675956017 100.91396977178712,215.5598317199089 C 100.91396977178712,215.38080704795544 99.97409024403129,215.06751387203678 98.81042987633353,214.9332453680717 C 95.99079129306594,214.5751960241647 90.84383197440289,213.05348631255998 88.7402920789493,211.979338280839 C 86.72626451947247,210.94994641710633 86.3234590075771,210.905190249118 85.9654096636701,211.80031360888552"
             id="i8"
             class="c4" />
        </g>
      </svg>
    </g>
  </g>
</svg>
